<svg xmlns="http://www.w3.org/2000/svg" viewBox="0 0 74.35 48.76"><defs><style>.cls-1{fill:#999;}</style></defs><title>Zasób 5</title><g id="Warstwa_2" data-name="Warstwa 2"><g id="Capa_1" data-name="Capa 1"><path class="cls-1" d="M.77,17.65,26.59,35,46.41,48.32c.51.35,1,.67,1.62.21,6.5-4.41,13-8.77,19.53-13.22a17.81,17.81,0,0,0,5.63-6,8,8,0,0,0-.91-9.5,15,15,0,0,0-2.34-2.23c-6-4.46-12.55-5.22-19.57-3.19-1,.3-2,.77-3,1.15-.31.12-.7.51-.94.22s.22-.65.43-.93a6.92,6.92,0,0,0,1.45-4.15,7.94,7.94,0,0,0-3-6.33A18.91,18.91,0,0,0,32.63,0,26.14,26.14,0,0,0,17.54,5C12,8.75,6.35,12.5.76,16.27-.25,17-.26,17,.77,17.65Zm45.54,2.76a17.72,17.72,0,0,1,9.07-2.24,13.2,13.2,0,0,1,9,3.94,5.48,5.48,0,0,1,1.71,3.71,6.42,6.42,0,0,1-1.46,3.68,16.72,16.72,0,0,1-4.06,3.72c-3.89,2.65-7.81,5.26-11.7,7.91a1.2,1.2,0,0,1-1.55,0Q39.64,36,32,30.82c-.4-.27-.92-.56-.18-1C36.66,26.69,41.19,23.09,46.31,20.41ZM11.49,15.92c3.95-2.63,7.85-5.32,11.85-7.87a15,15,0,0,1,8.33-2.52,12,12,0,0,1,8.17,3.05A5,5,0,0,1,41,15.49,12.32,12.32,0,0,1,37.72,19c-3.52,2.68-7.3,5-10.94,7.5a1,1,0,0,1-1.3,0q-7-4.72-14-9.42C10.81,16.6,10.93,16.29,11.49,15.92Z"/></g></g></svg>