<?xml version="1.0" encoding="utf-8"?>
<!-- Generator: Adobe Illustrator 24.0.1, SVG Export Plug-In . SVG Version: 6.00 Build 0)  -->
<svg version="1.1" id="Warstwa_1" xmlns="http://www.w3.org/2000/svg" xmlns:xlink="http://www.w3.org/1999/xlink" x="0px" y="0px"
	 viewBox="0 0 60.6 60.7" style="enable-background:new 0 0 60.6 60.7;" xml:space="preserve">
<style type="text/css">
	.st0{fill:#BB8AB0;}
	.st1{font-family:'OpenSans';}
	.st2{font-size:6.9867px;}
	.st3{font-size:7px;}
	.st4{font-size:7.0126px;}
	.st5{font-size:6.9726px;}
	.st6{font-size:7.0087px;}
	.st7{font-size:7.0349px;}
	.st8{font-size:7.0297px;}
	.st9{font-size:6.9783px;}
</style>
<title>kolo</title>
<g id="Warstwa_2_1_">
	<g id="Warstwa_1-2">
		<text transform="matrix(0.6112 -0.7915 0.7915 0.6112 9.4402 17.4996)" class="st0 st1 st2">N</text>
		<text transform="matrix(0.7684 -0.64 0.64 0.7684 13.2401 12.86)" class="st0 st1 st3">E</text>
		<text transform="matrix(0.8984 -0.4392 0.4392 0.8984 16.7397 9.8493)" class="st0 st1 st4">W</text>
		<text transform="matrix(0.9955 -9.480333e-02 9.480333e-02 0.9955 25.88 6.29)" class="st0 st1 st3">P</text>
		<text transform="matrix(0.9939 0.1104 -0.1104 0.9939 30.8301 5.8803)" class="st0 st1 st5">A</text>
		<text transform="matrix(0.9521 0.3059 -0.3059 0.9521 35.9399 6.55)" class="st0 st1 st3">S</text>
		<text transform="matrix(0.8772 0.4801 -0.4801 0.8772 40.3001 8.03)" class="st0 st1 st3">S</text>
		<text transform="matrix(0.7915 0.6112 -0.6112 0.7915 44.3097 10.3798)" class="st0 st1 st2">I</text>
		<text transform="matrix(0.6715 0.741 -0.741 0.6715 46.5303 11.9699)" class="st0 st1 st3">O</text>
		<text transform="matrix(0.4693 0.883 -0.883 0.4693 50.5901 16.59)" class="st0 st1 st3">N</text>
		<text transform="matrix(0.3044 0.9526 -0.9526 0.3044 53.2305 22.03)" class="st0 st1 st3">.</text>
		<text transform="matrix(4.993762e-02 0.9988 -0.9988 4.993762e-02 54.5307 27.2001)" class="st0 st1 st6">F</text>
		<text transform="matrix(-0.1371 0.9906 -0.9906 -0.1371 54.7304 31.5599)" class="st0 st1 st3">R</text>
		<text transform="matrix(-0.3322 0.9432 -0.9432 -0.3322 53.9392 36.5901)" class="st0 st1 st3">E</text>
		<text transform="matrix(-0.505 0.8631 -0.8631 -0.505 52.3204 40.9599)" class="st0 st1 st3">S</text>
		<text transform="matrix(-0.6766 0.7363 -0.7363 -0.6766 50.0109 44.8907)" class="st0 st1 st7">H</text>
		<text transform="matrix(-0.8976 0.4409 -0.4409 -0.8976 43.8709 50.8201)" class="st0 st1 st3">M</text>
		<text transform="matrix(-0.9827 0.1852 -0.1852 -0.9827 37.5308 53.7696)" class="st0 st1 st3">O</text>
		<text transform="matrix(-0.9994 -3.332968e-02 3.332968e-02 -0.9994 31.4199 54.74)" class="st0 st1 st3">T</text>
		<text transform="matrix(-0.983 -0.1836 0.1836 -0.983 26.7703 54.4591)" class="st0 st1 st3">I</text>
		<text transform="matrix(-0.9416 -0.3366 0.3366 -0.9416 24.0699 53.9799)" class="st0 st1 st3">V</text>
		<text transform="matrix(-0.8519 -0.5237 0.5237 -0.8519 19.4604 52.2609)" class="st0 st1 st3">A</text>
		<text transform="matrix(-0.7309 -0.6825 0.6825 -0.7309 15.1099 49.4609)" class="st0 st1 st3">T</text>
		<text transform="matrix(-0.6174 -0.7867 0.7867 -0.6174 11.7802 46.1702)" class="st0 st1 st8">I</text>
		<text transform="matrix(-0.4667 -0.8844 0.8844 -0.4667 10.0301 44.1008)" class="st0 st1 st3">O</text>
		<text transform="matrix(-0.2307 -0.973 0.973 -0.2307 7.2302 38.59)" class="st0 st1 st9">N</text>
		<text transform="matrix(-5.989229e-02 -0.9982 0.9982 -5.989229e-02 6.0495 32.6698)" class="st0 st1 st4">.</text>
	</g>
</g>
</svg>
