<svg xmlns="http://www.w3.org/2000/svg" viewBox="0 0 511.13 144.34"><defs><style>.cls-1{fill:#666565;}.cls-2{fill:#999;}</style></defs><title>node-black</title><g id="Warstwa_2" data-name="Warstwa 2"><g id="Warstwa_1-2" data-name="Warstwa 1"><path class="cls-1" d="M470.19,51.23a7.14,7.14,0,0,0-3.52.86L432.78,71.66a7.16,7.16,0,0,0-3.53,6.19v39.07a7.16,7.16,0,0,0,3.53,6.19l8.85,5.11c4.3,2.11,5.89,2.08,7.84,2.08,6.37,0,10-3.86,10-10.57V81.16a1,1,0,0,0-1-.94h-4.25a1,1,0,0,0-1,.94v38.57c0,3-3.1,6-8.13,3.45l-9.21-5.4a1,1,0,0,1-.57-.86V77.85a1.17,1.17,0,0,1,.57-.94l33.82-19.49a1,1,0,0,1,1,0l33.81,19.5a1.12,1.12,0,0,1,.58.93v39.07a1.11,1.11,0,0,1-.5.94L470.7,137.35a1,1,0,0,1-1,0L461,132.17a.93.93,0,0,0-.86,0,22.3,22.3,0,0,1-5.11,2.31c-.55.19-1.4.49.29,1.44l11.37,6.69a7,7,0,0,0,3.52.93,6.93,6.93,0,0,0,3.53-.93l33.89-19.5a7.16,7.16,0,0,0,3.52-6.19V77.85a7.15,7.15,0,0,0-3.52-6.19L473.72,52.09a7.12,7.12,0,0,0-3.53-.86Z"/><path class="cls-1" d="M479.26,79.15c-9.65,0-15.4,4.1-15.4,10.93,0,7.41,5.71,9.45,15,10.36,11.08,1.09,11.94,2.71,11.94,4.9,0,3.78-3,5.39-10.14,5.39-9,0-10.93-2.23-11.59-6.69a1,1,0,0,0-.93-.86h-4.39a1,1,0,0,0-1,1c0,5.71,3.1,12.45,17.92,12.45,10.72,0,16.9-4.21,16.9-11.58s-5-9.28-15.39-10.65-11.52-2.07-11.52-4.53c0-2,.85-4.75,8.64-4.75,6.95,0,9.52,1.5,10.58,6.19a1,1,0,0,0,.93.79h4.39a1.09,1.09,0,0,0,.72-.36,1,1,0,0,0,.29-.72c-.68-8.08-6.07-11.87-16.91-11.87Z"/><path class="cls-1" d="M271,0a2.19,2.19,0,0,0-1.08.29,2.17,2.17,0,0,0-1.07,1.87v55a1.49,1.49,0,0,1-.72,1.3,1.51,1.51,0,0,1-1.51,0l-9-5.18a4.28,4.28,0,0,0-4.32,0L217.36,74a4.41,4.41,0,0,0-2.16,3.81v41.44a4.3,4.3,0,0,0,2.16,3.74l35.9,20.73a4.33,4.33,0,0,0,4.32,0L293.48,123a4.28,4.28,0,0,0,2.16-3.74V16a4.37,4.37,0,0,0-2.23-3.81L272,.22A2.1,2.1,0,0,0,271,0ZM40,51.73a4.07,4.07,0,0,0-1.94.51L2.16,73A4.3,4.3,0,0,0,0,76.7l.07,55.62a2.13,2.13,0,0,0,1.08,1.87,2.09,2.09,0,0,0,2.16,0L24.61,122a4.41,4.41,0,0,0,2.23-3.75v-26A4.28,4.28,0,0,1,29,88.5l9.06-5.25a4.32,4.32,0,0,1,2.16-.58,4.27,4.27,0,0,1,2.16.58l9.06,5.25a4.29,4.29,0,0,1,2.16,3.74v26A4.42,4.42,0,0,0,55.83,122l21.3,12.23a2.09,2.09,0,0,0,2.16,0,2.16,2.16,0,0,0,1.08-1.87l.07-55.62A4.27,4.27,0,0,0,78.28,73L42.38,52.24a4,4,0,0,0-1.94-.51Zm322.63.51a4.36,4.36,0,0,0-2.16.57l-35.9,20.72a4.31,4.31,0,0,0-2.16,3.74v41.45a4.33,4.33,0,0,0,2.23,3.74l35.61,20.29a4.32,4.32,0,0,0,4.25.07l21.58-12a2.19,2.19,0,0,0,1.16-1.87,2.15,2.15,0,0,0-1.08-1.87L350,106.34a2.31,2.31,0,0,1-1.15-1.94v-13A2.21,2.21,0,0,1,350,89.58l11.22-6.48a2.14,2.14,0,0,1,2.16,0l11.22,6.48a2.15,2.15,0,0,1,1.08,1.87v10.21a2.16,2.16,0,0,0,3.24,1.87L400.47,91a4.33,4.33,0,0,0,2.16-3.74v-10a4.33,4.33,0,0,0-2.16-3.75L364.79,52.81a4.21,4.21,0,0,0-2.16-.57ZM255.28,83.17a1.13,1.13,0,0,1,.57.15l12.31,7.12a1.12,1.12,0,0,1,.57.94v14.24a1.13,1.13,0,0,1-.57.94l-12.31,7.12a1.09,1.09,0,0,1-1.08,0l-12.3-7.12a1.13,1.13,0,0,1-.57-.94V91.38a1.13,1.13,0,0,1,.57-.94l12.3-7.12a.86.86,0,0,1,.51-.14Z"/><path class="cls-2" d="M147.86,52a4.27,4.27,0,0,0-2.16.58L109.8,73.25a4.39,4.39,0,0,0-2.16,3.81V118.5a4.28,4.28,0,0,0,2.16,3.74L145.7,143a4.28,4.28,0,0,0,4.32,0l35.9-20.72a4.3,4.3,0,0,0,2.16-3.74V77.06a4.41,4.41,0,0,0-2.16-3.81L150,52.6A4.34,4.34,0,0,0,147.86,52Zm214.7,37a.87.87,0,0,0-.43.07l-6.91,4a.84.84,0,0,0-.43.72v7.92a.84.84,0,0,0,.43.72l6.91,4a.75.75,0,0,0,.79,0l6.9-4a.87.87,0,0,0,.44-.72V93.82a.87.87,0,0,0-.44-.72l-6.9-4a.65.65,0,0,0-.36-.07Z"/></g></g></svg>