<svg xmlns="http://www.w3.org/2000/svg" xmlns:xlink="http://www.w3.org/1999/xlink" viewBox="0 0 2292.9 2260.85"><defs><style>.cls-1{fill:url(#Gradient_bez_nazwy_70);}.cls-2{fill:url(#Gradient_bez_nazwy_54);}.cls-3{fill:url(#Gradient_bez_nazwy_45);}.cls-4{fill:url(#Gradient_bez_nazwy_60);}</style><linearGradient id="Gradient_bez_nazwy_70" y1="716.87" x2="1059.74" y2="716.87" gradientUnits="userSpaceOnUse"><stop offset="0" stop-color="#999"/><stop offset="0.4" stop-color="#999"/></linearGradient><linearGradient id="Gradient_bez_nazwy_54" x1="817.63" y1="1419.97" x2="942.07" y2="1552.35" gradientTransform="matrix(9.04, 0, 0, -9.04, -7044.07, 14926.5)" gradientUnits="userSpaceOnUse"><stop offset="0" stop-color="#999"/><stop offset="0.4" stop-color="#999"/><stop offset="0.77" stop-color="#676767"/><stop offset="1" stop-color="#565656"/></linearGradient><radialGradient id="Gradient_bez_nazwy_45" cx="954.37" cy="1605.32" r="121.58" gradientTransform="matrix(9.04, 0.02, 0.02, -7.56, -7071.1, 12689.8)" gradientUnits="userSpaceOnUse"><stop offset="0" stop-color="#999"/><stop offset="0.14" stop-color="#999"/><stop offset="0.29" stop-color="#999"/><stop offset="0.43" stop-color="#999"/><stop offset="0.59" stop-color="#8c8c8c"/><stop offset="0.74" stop-color="#777"/><stop offset="0.89" stop-color="#666"/><stop offset="1" stop-color="#565656"/></radialGradient><linearGradient id="Gradient_bez_nazwy_60" x1="847.34" y1="1605.34" x2="901.45" y2="1605.34" gradientTransform="matrix(9.04, 0, 0, -9.04, -7044.07, 14926.5)" gradientUnits="userSpaceOnUse"><stop offset="0" stop-color="#999"/><stop offset="0.24" stop-color="#999"/><stop offset="0.66" stop-color="#999"/><stop offset="1" stop-color="#636363"/></linearGradient></defs><title>rxjs</title><g id="Warstwa_2" data-name="Warstwa 2"><g id="Warstwa_1-2" data-name="Warstwa 1"><path class="cls-1" d="M132.13,1433.74c-47-146.46-60.58-301.06-33.45-460.19,11.75-66,29.83-129.28,49.72-193.48,0,0,124.77-409.56,547-596.71,0,0,145.56-76.85,364.35-82.27,0,0-29.83-28.93-48.82-41.59C907.85-9.21,754.15-31.82,661,64.92c-28,28.93-51.53,60.58-77.75,89.51-29.84,32.55-66,59.67-107.59,75-36.17,13.56-72.33,10.85-109.4,17.18-38,6.33-76.85,19.89-107.59,44.3-33.45,27.12-47,63.29-50.63,104.88-3.61,32.54-2.71,66-4.52,98.54-4.52,95.84-35.26,123-104,176.31-28.93,21.69-53.34,50.63-71.43,81.37-54.24,95.83,32.55,195.28,37.07,292,.91,19.89-.9,39.78-8.13,58.77-7.24,20.8-21.7,34.36-33.46,51.53C7.36,1177-3.49,1204.1,1,1232.13s19,54.24,32.55,78.66c26.22,43.39,58.77,82.27,93.12,119.34,1.81,0,3.62,1.81,5.43,3.61"/><path class="cls-2" d="M1857.17,1780.92c207.94-90.41,296.55-246.82,296.55-246.82,194.38-264.9,128.38-544.27,128.38-544.27-123.86,269.42-236.88,343.56-236.88,343.56,304.69-463.81,1.81-744.08,1.81-744.08,123.86,264-40.68,585.86-40.68,585.86-138.33,291.12-334.52,395.1-334.52,395.1,218.79,40.68,379.72-106.69,379.72-106.69-313.72,339-653.67,322.77-653.67,322.77,142.85,160,357.12,146.46,357.12,146.46-280.27,66-543.37-27.12-759.45-207a1190.5,1190.5,0,0,1-115.72-108.49s-32.55-34.36-38.88-43.4l-.91-.9c-4.52,167.26,170,322.76,170,322.76-218.8-90.41-319.15-286.6-319.15-286.6S543.5,1357.8,650.18,1071.2s429.45-348.09,429.45-348.09c266.72,129.29,492.74,170,492.74,170,476.47,79.56,449.35-153.7,449.35-153.7,4.52-200.71-298.36-414.08-298.36-414.08-539.75-400.52-1028-141.95-1028-141.95-422.22,187.15-547,596.71-547,596.71-19.89,64.2-38,127.48-49.72,193.48-46.11,268.52,23.5,522.58,174.49,748.61C508.24,2073,889.77,2194.1,889.77,2194.1c565.07,191.67,951.12-90.41,951.12-90.41,355.32-244.11,426.74-526.19,426.74-526.19-286.6,224.22-410.46,203.42-410.46,203.42ZM1416,461.83a48.82,48.82,0,1,1-48.82,48.82A48.61,48.61,0,0,1,1416,461.83Z"/><path class="cls-3" d="M2020.81,738.48c4.52-200.71-298.35-414.08-298.35-414.08-539.76-399.61-1028-141-1028-141-422.22,187.15-547,596.71-547,596.71-24.41,69.62-46.11,176.3-46.11,176.3-26.22,133.81-14.47,257.68-14.47,257.68,10.85,118.43,37.07,198,37.07,198,27.12,85,39.78,111.2,39.78,111.2-.9-2.71-5.42-22.6-5.42-22.6s-38-182.63-2.72-358c0,0,30.74-182.63,155.51-323.67,0,0,202.52-288.41,579.54-175.4,0,0,81.37,28.93,109.39,43.4,28,13.56,76.85,34.36,76.85,34.36,266.71,129.28,492.74,170,492.74,170C2047.94,971.74,2020.81,738.48,2020.81,738.48ZM1416,560.37a48.82,48.82,0,1,1,48.82-48.82A48.61,48.61,0,0,1,1416,560.37Z"/><path class="cls-4" d="M1106.76,375,798.46,279.2c-1.81,0-10.85-4.52-27.13,0,0,0-181.72,46.11-150.08,145.56,0,0,19,62.38,70.52,123l339-16.28Z"/></g></g></svg>