<svg xmlns="http://www.w3.org/2000/svg" viewBox="0 0 256 289.67"><defs><style>.cls-1{fill:#fff;}.cls-2{fill:#999;}.cls-3{fill:#727272;}</style></defs><title>Zasób 1</title><g id="Warstwa_2" data-name="Warstwa 2"><g id="Warstwa_1-2" data-name="Warstwa 1"><polygon class="cls-1" points="128 0 256 72.41 256 217.26 128 289.67 0 217.26 0 72.41 128 0"/><path class="cls-2" d="M233.15,212.24l-100.9,57.14V224.94l62.89-34.63Zm6.91-6.23V86.61l-36.9,21.3v76.8Zm-217.6,6.23,100.9,57.09V224.89L60.47,190.31l-38,21.93ZM15.55,206V86.61l36.91,21.3v76.8L15.55,206Zm4.3-127.13L123.36,20.34v43L57,99.79l-.53.29L19.85,78.88Zm215.86,0L132.25,20.34v43l66.27,36.52.53.29,36.66-21.25Z"/><path class="cls-3" d="M123.36,214.8l-62-34.15V113.07l62,35.8V214.8Zm8.89,0,62-34.1V113.07l-62,35.8ZM65.5,105.25,127.81,71l62.26,34.25-62.26,35.94L65.5,105.25Z"/></g></g></svg>